<svg width="39" height="42" viewBox="0 0 39 42" fill="none" xmlns="http://www.w3.org/2000/svg">
<g filter="url(#filter0_d_5_25)">
<path d="M19.5 33.25C15.4375 33.25 11.9844 31.8646 9.14062 29.0938C6.29688 26.3229 4.875 22.9583 4.875 19C4.875 15.0417 6.29688 11.6771 9.14062 8.90625C11.9844 6.13542 15.4375 4.75 19.5 4.75C19.8792 4.75 20.2516 4.76319 20.6172 4.78958C20.9828 4.81597 21.3417 4.85556 21.6938 4.90833C20.5833 5.67361 19.6964 6.66979 19.0328 7.89688C18.3693 9.12396 18.0375 10.45 18.0375 11.875C18.0375 14.25 18.8906 16.2687 20.5969 17.9313C22.3031 19.5938 24.375 20.425 26.8125 20.425C28.3021 20.425 29.6698 20.1017 30.9156 19.4552C32.1615 18.8087 33.1771 17.9444 33.9625 16.8625C34.0167 17.2056 34.0573 17.5552 34.0844 17.9115C34.1115 18.2677 34.125 18.6306 34.125 19C34.125 22.9583 32.7031 26.3229 29.8594 29.0938C27.0156 31.8646 23.5625 33.25 19.5 33.25ZM19.5 30.0833C21.8833 30.0833 24.0229 29.4434 25.9187 28.1635C27.8146 26.8837 29.1958 25.2146 30.0625 23.1563C29.5208 23.2882 28.9792 23.3938 28.4375 23.4729C27.8958 23.5521 27.3542 23.5917 26.8125 23.5917C23.4813 23.5917 20.6443 22.4503 18.3016 20.1677C15.9589 17.8851 14.7875 15.1208 14.7875 11.875C14.7875 11.3472 14.8281 10.8194 14.9094 10.2917C14.9906 9.76389 15.099 9.23611 15.2344 8.70833C13.1219 9.55278 11.4089 10.8986 10.0953 12.7458C8.78177 14.5931 8.125 16.6778 8.125 19C8.125 22.0611 9.23542 24.6736 11.4563 26.8375C13.6771 29.0014 16.3583 30.0833 19.5 30.0833Z" fill="#E7E0EC"/>
</g>
<defs>
<filter id="filter0_d_5_25" x="-4" y="0" width="47" height="46" filterUnits="userSpaceOnUse" color-interpolation-filters="sRGB">
<feFlood flood-opacity="0" result="BackgroundImageFix"/>
<feColorMatrix in="SourceAlpha" type="matrix" values="0 0 0 0 0 0 0 0 0 0 0 0 0 0 0 0 0 0 127 0" result="hardAlpha"/>
<feOffset dy="4"/>
<feGaussianBlur stdDeviation="2"/>
<feComposite in2="hardAlpha" operator="out"/>
<feColorMatrix type="matrix" values="0 0 0 0 0 0 0 0 0 0 0 0 0 0 0 0 0 0 0.25 0"/>
<feBlend mode="normal" in2="BackgroundImageFix" result="effect1_dropShadow_5_25"/>
<feBlend mode="normal" in="SourceGraphic" in2="effect1_dropShadow_5_25" result="shape"/>
</filter>
</defs>
</svg>
