<svg width="41" height="66" viewBox="0 0 41 66" fill="none" xmlns="http://www.w3.org/2000/svg">
<path d="M20.5094 5.37615C26.3375 12.6495 29.4487 21.6188 29.3359 30.8224V33.0194L31.2587 34.1696C33.7432 35.6481 35.5961 37.9413 36.4798 40.6313C35.7039 40.0697 34.8922 39.5561 34.0496 39.0934L28.9219 36.2632L28.0006 41.9753C27.9208 42.4801 27.8138 42.9805 27.6801 43.4744H13.3121C13.0984 42.8283 12.9248 42.1821 12.7646 41.5101L11.6029 36.3407L6.87584 38.9254C6.08612 39.3595 5.32365 39.8385 4.59245 40.3599C5.49335 37.701 7.30758 35.4207 9.73342 33.8982L11.5628 32.748V30.7061C11.5958 21.5398 14.7444 12.6388 20.5228 5.37615H20.5094ZM20.5228 0C20.2231 0.000715423 19.9338 0.106286 19.7082 0.297239L19.5881 0.400627C11.888 8.73529 7.61231 19.5128 7.5702 30.6932C4.30268 32.7449 1.884 35.8426 0.736827 39.445C-0.410346 43.0475 -0.21306 46.9255 1.29421 50.4014C2.88204 47.0075 5.53636 44.1853 8.87882 42.3372C9.21403 43.7425 9.66045 45.1207 10.2141 46.4598C10.2844 46.7172 10.44 46.9451 10.6571 47.1086C10.8743 47.272 11.1409 47.3619 11.4159 47.3644H29.9501C30.324 47.3644 30.6979 47.0155 30.8849 46.4727C31.4252 45.1996 31.802 43.8672 32.0065 42.5052C35.3554 44.3456 38.0119 47.1701 39.5911 50.5694C41.1893 47.1106 41.4368 43.2081 40.2875 39.5861C39.1383 35.9641 36.6704 32.8686 33.3418 30.8741C33.4739 19.6278 29.2208 8.74657 21.4308 0.400627C21.3148 0.275101 21.1728 0.174572 21.0141 0.105556C20.8554 0.0365393 20.6834 0.000576927 20.5094 0L20.5228 0Z" fill="#4EA8DE"/>
<path d="M20.5094 29.6205C19.4837 29.6205 18.481 29.3266 17.6277 28.7759C16.7744 28.2252 16.1086 27.4423 15.7143 26.526C15.32 25.6096 15.2148 24.6008 15.412 23.6267C15.6092 22.6526 16.1 21.7568 16.8224 21.0522C17.5449 20.3476 18.4667 19.8658 19.4717 19.6674C20.4766 19.4691 21.5197 19.5632 22.4696 19.9377C23.4194 20.3123 24.2334 20.9506 24.8089 21.7722C25.3845 22.5938 25.6958 23.5619 25.7037 24.5545C25.7197 25.1978 25.6046 25.8378 25.3649 26.438C25.1252 27.0381 24.7657 27.5867 24.3069 28.0524C23.848 28.518 23.2989 28.8916 22.6909 29.1518C22.0828 29.412 21.4277 29.5537 20.7631 29.5688C20.679 29.5819 20.5934 29.5819 20.5094 29.5688V29.6205Z" fill="#4EA8DE"/>
<path d="M27.7335 50.5824C27.3993 50.572 27.0665 50.6264 26.7543 50.7422C26.4422 50.858 26.1571 51.033 25.9158 51.257C25.6746 51.4809 25.4819 51.7491 25.3492 52.0461C25.2164 52.343 25.1463 52.6626 25.1429 52.9861V60.6109C25.1429 61.2759 25.4159 61.9136 25.9017 62.3838C26.3875 62.8539 27.0464 63.1181 27.7335 63.1181C28.4205 63.1181 29.0794 62.8539 29.5652 62.3838C30.051 61.9136 30.324 61.2759 30.324 60.6109V53.0895C30.3347 52.7672 30.2789 52.4461 30.1601 52.1449C30.0412 51.8436 29.8616 51.5683 29.6316 51.335C29.4017 51.1016 29.1261 50.9149 28.8208 50.7857C28.5156 50.6564 28.1868 50.5873 27.8536 50.5824H27.7335Z" fill="#5E60CE"/>
<path d="M13.312 50.5823C12.9722 50.565 12.6323 50.6139 12.3124 50.7262C11.9926 50.8386 11.6993 51.012 11.4502 51.2363C11.201 51.4606 11.001 51.7311 10.862 52.0317C10.7231 52.3323 10.648 52.6569 10.6414 52.9861V60.6109C10.6414 61.2759 10.9143 61.9136 11.4001 62.3838C11.8859 62.8539 12.5448 63.1181 13.2319 63.1181C13.9189 63.1181 14.5778 62.8539 15.0636 62.3838C15.5495 61.9136 15.8224 61.2759 15.8224 60.6109V53.0895C15.8331 52.7672 15.7773 52.4461 15.6585 52.1449C15.5396 51.8436 15.36 51.5683 15.13 51.3349C14.9001 51.1016 14.6245 50.9149 14.3192 50.7856C14.014 50.6564 13.6852 50.5873 13.3521 50.5823H13.312Z" fill="#5E60CE"/>
<path d="M20.3224 50.5823C19.9893 50.5755 19.6579 50.6322 19.3474 50.7493C19.0369 50.8664 18.7532 51.0416 18.5126 51.2648C18.2721 51.488 18.0793 51.7549 17.9453 52.0503C17.8114 52.3456 17.7389 52.6636 17.7319 52.9861V63.4928C17.7319 64.1578 18.0049 64.7955 18.4907 65.2656C18.9765 65.7358 19.6354 66 20.3224 66C21.0095 66 21.6684 65.7358 22.1542 65.2656C22.64 64.7955 22.913 64.1578 22.913 63.4928V53.1541C22.9236 52.8318 22.8679 52.5107 22.7491 52.2094C22.6302 51.9082 22.4505 51.6329 22.2206 51.3995C21.9907 51.1662 21.7151 50.9794 21.4098 50.8502C21.1045 50.721 20.7758 50.6519 20.4426 50.6469L20.3224 50.5823Z" fill="#5E60CE"/>
</svg>
